HIERARCHY
ROOT Hips
{
	OFFSET 3.832332 0.400399 5.448776
	CHANNELS 6 Xposition Yposition Zposition Zrotation Yrotation Xrotation 
	JOINT Spine
	{
		OFFSET -0.000009 8.340343 -2.713944
		CHANNELS 3 Zrotation Yrotation Xrotation
		JOINT Spine1
		{
			OFFSET 0.000010 11.909910 -2.100014
			CHANNELS 3 Zrotation Yrotation Xrotation
			JOINT Spine2
			{
				OFFSET -0.000025 12.047699 -1.054089
				CHANNELS 3 Zrotation Yrotation Xrotation
				JOINT Spine3
				{
					OFFSET -0.000066 12.093739 -0.000067
					CHANNELS 3 Zrotation Yrotation Xrotation
					JOINT Neck
					{
						OFFSET 0.000023 15.549122 1.554863
						CHANNELS 3 Zrotation Yrotation Xrotation
						JOINT Neck1
						{
							OFFSET 0.000041 4.687332 0.410073
							CHANNELS 3 Zrotation Yrotation Xrotation
							JOINT Head
							{
								OFFSET 0.000047 4.633830 0.817001
								CHANNELS 3 Zrotation Yrotation Xrotation
								JOINT HeadEnd
								{
									OFFSET 0.000052 9.727650 -0.000050
									CHANNELS 3 Zrotation Yrotation Xrotation
									End Site
									{
										OFFSET 0.000000 0.000000 0.000000
									}
								}
							}
						}
					}
					JOINT RightShoulder
					{
						OFFSET -0.000035 11.106390 6.072628
						CHANNELS 3 Zrotation Yrotation Xrotation
						JOINT RightArm
						{
							OFFSET -19.427929 0.000035 0.000004
							CHANNELS 3 Zrotation Yrotation Xrotation
							JOINT RightForeArm
							{
								OFFSET -29.350671 -0.000010 -0.000073
								CHANNELS 3 Zrotation Yrotation Xrotation
								JOINT RightHand
								{
									OFFSET -27.018071 -0.000036 -0.000012
									CHANNELS 3 Zrotation Yrotation Xrotation
									JOINT RightHandMiddle1
									{
										OFFSET -9.244051 0.000000 -0.000001
										CHANNELS 3 Zrotation Yrotation Xrotation
										JOINT RightHandMiddle2
										{
											OFFSET -4.870020 -0.000008 0.000026
											CHANNELS 3 Zrotation Yrotation Xrotation
											JOINT RightHandMiddle3
											{
												OFFSET -3.169037 -0.000014 0.000003
												CHANNELS 3 Zrotation Yrotation Xrotation
												JOINT RightHandMiddle4
												{
													OFFSET -1.888381 0.000007 -0.000015
													CHANNELS 3 Zrotation Yrotation Xrotation
													End Site
													{
														OFFSET 0.000000 0.000000 0.000000
													}
												}
											}
										}
									}
									JOINT RightHandRing
									{
										OFFSET -0.250002 -0.249980 -0.956503
										CHANNELS 3 Zrotation Yrotation Xrotation
										JOINT RightHandRing1
										{
											OFFSET -8.140194 0.000019 -0.734581
											CHANNELS 3 Zrotation Yrotation Xrotation
											JOINT RightHandRing2
											{
												OFFSET -4.501553 0.000010 -0.406273
												CHANNELS 3 Zrotation Yrotation Xrotation
												JOINT RightHandRing3
												{
													OFFSET -3.068869 -0.000006 -0.276942
													CHANNELS 3 Zrotation Yrotation Xrotation
													JOINT RightHandRing4
													{
														OFFSET -1.869938 0.000025 -0.168758
														CHANNELS 3 Zrotation Yrotation Xrotation
														End Site
														{
															OFFSET 0.000000 0.000000 0.000000
														}
													}
												}
											}
										}
										JOINT RightHandPinky
										{
											OFFSET -0.163019 -0.250022 -0.975119
											CHANNELS 3 Zrotation Yrotation Xrotation
											JOINT RightHandPinky1
											{
												OFFSET -6.681480 0.000026 -1.494065
												CHANNELS 3 Zrotation Yrotation Xrotation
												JOINT RightHandPinky2
												{
													OFFSET -3.580926 0.000026 -0.800775
													CHANNELS 3 Zrotation Yrotation Xrotation
													JOINT RightHandPinky3
													{
														OFFSET -2.276492 0.000001 -0.509068
														CHANNELS 3 Zrotation Yrotation Xrotation
														JOINT RightHandPinky4
														{
															OFFSET -1.690366 0.000016 -0.378010
															CHANNELS 3 Zrotation Yrotation Xrotation
															End Site
															{
																OFFSET 0.000000 0.000000 0.000000
															}
														}
													}
												}
											}
										}
									}
									JOINT RightHandIndex
									{
										OFFSET -0.250016 -0.250014 0.956511
										CHANNELS 3 Zrotation Yrotation Xrotation
										JOINT RightHandIndex1
										{
											OFFSET -8.934118 0.000004 0.806257
											CHANNELS 3 Zrotation Yrotation Xrotation
											JOINT RightHandIndex2
											{
												OFFSET -4.694692 0.000047 0.423669
												CHANNELS 3 Zrotation Yrotation Xrotation
												JOINT RightHandIndex3
												{
													OFFSET -2.811744 -0.000009 0.253747
													CHANNELS 3 Zrotation Yrotation Xrotation
													JOINT RightHandIndex4
													{
														OFFSET -1.709962 -0.000025 0.154323
														CHANNELS 3 Zrotation Yrotation Xrotation
														End Site
														{
															OFFSET 0.000000 0.000000 0.000000
														}
													}
												}
											}
										}
										JOINT RightHandThumb1
										{
											OFFSET -0.163046 -0.750029 0.975114
											CHANNELS 3 Zrotation Yrotation Xrotation
											JOINT RightHandThumb2
											{
												OFFSET -5.411670 0.835524 2.244712
												CHANNELS 3 Zrotation Yrotation Xrotation
												JOINT RightHandThumb3
												{
													OFFSET -3.567166 0.550748 1.479636
													CHANNELS 3 Zrotation Yrotation Xrotation
													JOINT RightHandThumb4
													{
														OFFSET -2.150557 0.332009 0.892035
														CHANNELS 3 Zrotation Yrotation Xrotation
														End Site
														{
															OFFSET 0.000000 0.000000 0.000000
														}
													}
												}
											}
										}
									}
								}
							}
						}
					}
					JOINT LeftShoulder
					{
						OFFSET -0.000018 11.106412 6.072623
						CHANNELS 3 Zrotation Yrotation Xrotation
						JOINT LeftArm
						{
							OFFSET 19.427871 -0.000068 -0.000040
							CHANNELS 3 Zrotation Yrotation Xrotation
							JOINT LeftForeArm
							{
								OFFSET 29.350712 0.000017 0.000021
								CHANNELS 3 Zrotation Yrotation Xrotation
								JOINT LeftHand
								{
									OFFSET 27.018138 -0.000008 -0.000074
									CHANNELS 3 Zrotation Yrotation Xrotation
									JOINT LeftHandMiddle1
									{
										OFFSET 9.402689 -0.000010 -0.000016
										CHANNELS 3 Zrotation Yrotation Xrotation
										JOINT LeftHandMiddle2
										{
											OFFSET 4.950083 0.000011 0.000019
											CHANNELS 3 Zrotation Yrotation Xrotation
											JOINT LeftHandMiddle3
											{
												OFFSET 3.211960 -0.000002 -0.000043
												CHANNELS 3 Zrotation Yrotation Xrotation
												JOINT LeftHandMiddle4
												{
													OFFSET 1.927575 -0.000011 -0.000038
													CHANNELS 3 Zrotation Yrotation Xrotation
													End Site
													{
														OFFSET 0.000000 0.000000 0.000000
													}
												}
											}
										}
									}
									JOINT LeftHandRing
									{
										OFFSET 0.249979 -0.249998 -0.906159
										CHANNELS 3 Zrotation Yrotation Xrotation
										JOINT LeftHandRing1
										{
											OFFSET 8.286072 0.000050 -0.747778
											CHANNELS 3 Zrotation Yrotation Xrotation
											JOINT LeftHandRing2
											{
												OFFSET 4.585440 0.000010 -0.413797
												CHANNELS 3 Zrotation Yrotation Xrotation
												JOINT LeftHandRing3
												{
													OFFSET 3.124419 0.000024 -0.281967
													CHANNELS 3 Zrotation Yrotation Xrotation
													JOINT LeftHandRing4
													{
														OFFSET 1.908792 -0.000030 -0.172237
														CHANNELS 3 Zrotation Yrotation Xrotation
														End Site
														{
															OFFSET 0.000000 0.000000 0.000000
														}
													}
												}
											}
										}
										JOINT LeftHandPinky
										{
											OFFSET 0.167545 -0.250012 -0.924976
											CHANNELS 3 Zrotation Yrotation Xrotation
											JOINT LeftHandPinky1
											{
												OFFSET 6.823497 0.000013 -1.525882
												CHANNELS 3 Zrotation Yrotation Xrotation
												JOINT LeftHandPinky2
												{
													OFFSET 3.642854 0.000002 -0.814610
													CHANNELS 3 Zrotation Yrotation Xrotation
													JOINT LeftHandPinky3
													{
														OFFSET 2.333105 -0.000030 -0.521739
														CHANNELS 3 Zrotation Yrotation Xrotation
														JOINT LeftHandPinky4
														{
															OFFSET 1.725455 -0.000002 -0.385861
															CHANNELS 3 Zrotation Yrotation Xrotation
															End Site
															{
																OFFSET 0.000000 0.000000 0.000000
															}
														}
													}
												}
											}
										}
									}
									JOINT LeftHandIndex
									{
										OFFSET 0.250015 -0.249999 0.906173
										CHANNELS 3 Zrotation Yrotation Xrotation
										JOINT LeftHandIndex1
										{
											OFFSET 9.087999 -0.000006 0.820135
											CHANNELS 3 Zrotation Yrotation Xrotation
											JOINT LeftHandIndex2
											{
												OFFSET 4.776538 0.000020 0.431070
												CHANNELS 3 Zrotation Yrotation Xrotation
												JOINT LeftHandIndex3
												{
													OFFSET 2.865146 0.000015 0.258586
													CHANNELS 3 Zrotation Yrotation Xrotation
													JOINT LeftHandIndex4
													{
														OFFSET 1.745470 -0.000002 0.157525
														CHANNELS 3 Zrotation Yrotation Xrotation
														End Site
														{
															OFFSET 0.000000 0.000000 0.000000
														}
													}
												}
											}
										}
										JOINT LeftHandThumb1
										{
											OFFSET 0.167531 -0.749991 0.924986
											CHANNELS 3 Zrotation Yrotation Xrotation
											JOINT LeftHandThumb2
											{
												OFFSET 5.551431 0.857138 2.302677
												CHANNELS 3 Zrotation Yrotation Xrotation
												JOINT LeftHandThumb3
												{
													OFFSET 3.625626 0.559771 1.503876
													CHANNELS 3 Zrotation Yrotation Xrotation
													JOINT LeftHandThumb4
													{
														OFFSET 2.195231 0.338951 0.910569
														CHANNELS 3 Zrotation Yrotation Xrotation
														End Site
														{
															OFFSET 0.000000 0.000000 0.000000
														}
													}
												}
											}
										}
									}
								}
							}
						}
					}
				}
			}
		}
	}
	JOINT RightUpLeg
	{
		OFFSET -8.786527 0.000011 0.000013
		CHANNELS 3 Zrotation Yrotation Xrotation
		JOINT RightLeg
		{
			OFFSET -0.000077 -42.170407 0.000000
			CHANNELS 3 Zrotation Yrotation Xrotation
			JOINT RightFoot
			{
				OFFSET 0.000041 -45.949171 -0.000068
				CHANNELS 3 Zrotation Yrotation Xrotation
				JOINT RightForeFoot
				{
					OFFSET -0.000008 -4.685814 0.000035
					CHANNELS 3 Zrotation Yrotation Xrotation
					JOINT RightToeBase
					{
						OFFSET -0.000000 -0.000005 18.351058
						CHANNELS 3 Zrotation Yrotation Xrotation
						JOINT RightToeBaseEnd
						{
							OFFSET 0.000105 -0.000041 6.416884
							CHANNELS 3 Zrotation Yrotation Xrotation
							End Site
							{
								OFFSET 0.000000 0.000000 0.000000
							}
						}
					}
				}
			}
		}
	}
	JOINT LeftUpLeg
	{
		OFFSET 8.786530 0.000016 -0.000013
		CHANNELS 3 Zrotation Yrotation Xrotation
		JOINT LeftLeg
		{
			OFFSET -0.000031 -42.170466 0.000028
			CHANNELS 3 Zrotation Yrotation Xrotation
			JOINT LeftFoot
			{
				OFFSET 0.000017 -45.949189 -0.000037
				CHANNELS 3 Zrotation Yrotation Xrotation
				JOINT LeftForeFoot
				{
					OFFSET 0.000033 -4.685803 -0.000058
					CHANNELS 3 Zrotation Yrotation Xrotation
					JOINT LeftToeBase
					{
						OFFSET 0.000046 -0.000041 18.351089
						CHANNELS 3 Zrotation Yrotation Xrotation
						JOINT LeftToeBaseEnd
						{
							OFFSET 0.000049 0.000031 7.522056
							CHANNELS 3 Zrotation Yrotation Xrotation
							End Site
							{
								OFFSET 0.000000 0.000000 0.000000
							}
						}
					}
				}
			}
		}
	}
}
MOTION
Frames: 5
Frame Time: 0.066667
3.832332 0.400399 5.448776 -6.326488 12.586700 1.225245 6.598561 -1.008575 1.867545 -0.027735 0.054164 -2.605018 -0.534233 1.873537 -1.202025 0.920511 0.977959 8.144491 4.214967 0.881379 8.387501 -10.072145 4.544940 -0.163308 -5.703535 1.278359 1.033135 0.001551 -0.003371 -0.001740 7.789679 -11.114333 -1.494406 69.669426 8.097624 8.552895 179.995132 59.848301 145.672806 -17.629351 -12.785797 0.018154 35.991302 -7.417902 0.000467 41.311996 -0.000069 0.000847 22.353008 0.000192 0.002051 -0.000526 -0.001297 -0.002119 -1.600788 -1.697109 -4.908784 39.960598 -4.792776 -3.307267 49.896351 1.864508 -3.957885 18.757868 0.276422 -1.663961 0.000873 -0.000956 -0.000600 -2.102925 -4.227467 -4.586573 30.334894 3.364597 -6.524482 47.213367 4.123087 -9.442653 35.539604 2.406399 -7.469074 -0.000233 -0.000792 -0.001096 0.856903 7.491499 -1.145539 29.759176 -15.226090 2.689718 36.231369 -1.006243 3.058473 20.536654 -0.324398 1.815386 -0.000328 0.000604 0.000444 9.301542 -5.876023 59.425163 6.795028 4.413977 3.483823 3.145520 -2.025134 0.961990 -0.003384 0.000185 0.000321 -10.997444 8.367190 -1.636388 -60.928379 4.679627 17.728140 179.999527 -52.724049 167.357864 13.064373 23.173876 0.036461 -27.045172 3.763208 0.000330 -50.892227 -0.002813 0.001325 -25.276079 0.000648 -0.000531 0.000948 0.000778 -0.000992 -0.701652 1.577301 -10.846278 -22.551582 3.596889 -1.977618 -55.822510 -2.281588 -4.280114 -14.437311 -0.163854 -1.289894 -0.000209 0.001173 0.000590 -0.391776 1.389683 -5.241845 -11.324243 5.527313 -2.479712 -42.397167 -3.363077 -8.679487 -30.274546 -1.751415 -6.473924 0.000931 0.000648 0.000064 -0.342306 -6.604728 -4.206421 -26.202520 14.067048 2.420520 -40.708916 1.251551 3.375211 -19.738775 0.294489 1.748069 -0.000201 0.000256 0.000641 -14.263120 8.096819 52.064411 -2.759253 5.363679 0.331817 0.000000 0.000000 0.000000 -0.001626 -0.000597 -0.001430 -1.289588 1.798016 -1.206905 0.001965 0.000840 5.709641 0.000000 0.000000 -0.000000 0.000000 0.000000 0.000000 -0.000000 0.000000 0.000000 0.000000 0.000000 0.000000 6.567896 -9.621358 3.666146 0.001053 -0.000040 1.241680 -0.000000 -0.000000 -0.000000 0.000000 -0.000000 -0.000000 -0.000000 0.000000 0.000000 -0.000000 0.000000 0.000000 
2.990457 0.430303 5.893240 -6.526534 13.152959 1.364485 6.946773 -1.047502 1.706708 -0.045520 0.038330 -2.615823 -0.502008 1.809170 -1.221115 0.936169 0.969836 8.116656 4.106679 1.041301 8.817300 -9.933603 4.785400 0.055033 -5.689354 1.293647 1.140016 0.001144 -0.002918 -0.001636 7.970523 -11.256421 -1.554483 69.432877 7.074513 9.862353 179.994949 60.578079 147.158188 -17.049175 -13.451021 0.020708 36.151779 -7.401167 -0.000347 41.249485 -0.000374 0.000756 22.333117 0.000190 0.001958 -0.000982 -0.001395 -0.002236 -1.589034 -1.725416 -4.879985 40.280655 -4.698106 -3.329007 49.970577 1.869218 -3.962304 18.715622 0.275473 -1.660348 0.000889 -0.000658 -0.000140 -2.095883 -4.292150 -4.537542 30.533604 3.660655 -6.571391 47.328892 4.142682 -9.461102 35.541862 2.406091 -7.469563 -0.000076 -0.000798 -0.000978 0.869116 7.506488 -1.151751 29.907423 -15.259239 2.703384 36.314362 -1.009921 3.064557 20.718346 -0.330257 1.830252 -0.000024 0.000895 0.000515 9.376937 -5.912869 59.507393 7.087005 4.198163 3.544771 3.497682 -2.256824 1.059975 -0.003168 -0.000115 -0.000176 -11.144007 8.449911 -1.675553 -60.901329 4.965267 19.747553 179.999374 -52.769970 170.231705 14.115876 23.438335 0.099117 -27.131416 3.772011 -0.000097 -50.824020 -0.002641 0.001315 -25.246544 0.000646 -0.000860 0.000733 0.000969 -0.001025 -0.701544 1.596034 -10.861049 -22.717016 3.575284 -1.991012 -55.913658 -2.286856 -4.284956 -14.434701 -0.163489 -1.289358 -0.000309 0.000956 0.000509 -0.374044 1.410926 -5.214383 -11.228557 5.518833 -2.458673 -42.452877 -3.373431 -8.689589 -30.221485 -1.745572 -6.463227 0.000873 0.000532 -0.000012 -0.342460 -6.614059 -4.222435 -26.343468 14.074463 2.431991 -40.792450 1.255559 3.381461 -19.843267 0.297896 1.757352 -0.000340 0.000435 0.000451 -14.274254 8.099826 52.110970 -2.784965 5.417319 0.334023 0.000000 0.000000 0.000000 -0.001455 -0.000424 -0.001280 -0.469620 1.417837 -0.725465 0.001107 0.001358 4.909327 0.000000 0.000000 -0.000000 0.000000 0.000000 0.000000 -0.000000 0.000000 0.000000 0.000000 0.000000 0.000000 7.596986 -9.546529 3.372233 0.001283 0.000144 1.250567 -0.000000 -0.000000 -0.000000 0.000000 -0.000000 -0.000000 -0.000000 0.000000 0.000000 -0.000000 0.000000 0.000000 
2.194243 0.455952 6.320556 -6.719323 13.677401 1.492341 7.277874 -1.085902 1.550524 -0.061650 0.022573 -2.627312 -0.467996 1.736670 -1.241280 0.958810 0.960549 8.087508 4.006172 1.173596 9.180734 -9.800222 4.992082 0.241519 -5.674344 1.306430 1.236092 0.000777 -0.002526 -0.001564 8.144562 -11.391633 -1.612316 69.208839 6.154898 11.015036 179.994858 61.182674 148.262756 -16.205761 -14.106057 0.025125 36.286983 -7.382943 -0.001049 41.223186 -0.000638 0.000660 22.337538 0.000187 0.001877 -0.001371 -0.001465 -0.002327 -1.578629 -1.750260 -4.855289 40.557663 -4.611836 -3.347753 50.072376 1.875878 -3.968309 18.691965 0.275036 -1.658326 0.000882 -0.000395 0.000289 -2.090366 -4.351975 -4.492910 30.692940 3.927449 -6.610044 47.466812 4.166244 -9.482821 35.557751 2.407554 -7.472514 0.000061 -0.000790 -0.000876 0.880096 7.520782 -1.158406 30.050535 -15.286573 2.716336 36.417618 -1.014897 3.072162 20.914137 -0.336650 1.846360 0.000232 0.001152 0.000571 9.452482 -5.943331 59.576061 7.353889 3.991695 3.598693 3.836382 -2.480032 1.153751 -0.002983 -0.000375 -0.000596 -11.270881 8.519203 -1.708826 -60.892330 5.138174 21.459490 179.999237 -52.785820 172.362244 14.523892 23.657614 0.146752 -27.193005 3.781355 -0.000476 -50.760841 -0.002485 0.001308 -25.222898 0.000637 -0.001149 0.000534 0.001132 -0.001070 -0.700643 1.612599 -10.875426 -22.847628 3.561315 -2.001560 -55.994019 -2.291632 -4.289235 -14.430470 -0.163112 -1.288710 -0.000407 0.000753 0.000436 -0.357094 1.431793 -5.189123 -11.127189 5.514624 -2.436434 -42.505253 -3.383025 -8.699013 -30.170713 -1.739979 -6.453043 0.000832 0.000435 -0.000080 -0.342611 -6.623354 -4.235898 -26.458120 14.077823 2.441266 -40.869480 1.259202 3.387188 -19.946205 0.301228 1.766428 -0.000455 0.000599 0.000289 -14.288037 8.102970 52.153305 -2.813067 5.467513 0.337761 0.000000 0.000000 0.000000 -0.001300 -0.000296 -0.001131 0.305722 1.068533 -0.289722 0.000340 0.001817 4.186652 0.000000 0.000000 -0.000000 0.000000 0.000000 0.000000 -0.000000 0.000000 0.000000 0.000000 0.000000 0.000000 8.568846 -9.469251 3.099209 0.001433 0.000298 1.255996 -0.000000 -0.000000 -0.000000 0.000000 -0.000000 -0.000000 -0.000000 0.000000 0.000000 -0.000000 0.000000 0.000000 
1.443999 0.477346 6.730898 -6.904581 14.160032 1.609474 7.591848 -1.123777 1.399019 -0.076124 0.006891 -2.639485 -0.432194 1.656038 -1.262517 0.988435 0.950096 8.057044 3.913440 1.278284 9.477802 -9.672020 5.165010 0.396215 -5.658506 1.316709 1.321364 0.000451 -0.002194 -0.001524 8.311763 -11.519978 -1.667898 68.997185 5.339656 12.005007 179.994843 61.661777 148.992325 -15.094454 -14.753144 0.031014 36.396950 -7.363255 -0.001643 41.233089 -0.000860 0.000559 22.366276 0.000184 0.001809 -0.001695 -0.001509 -0.002391 -1.569573 -1.771643 -4.834698 40.791470 -4.534059 -3.363531 50.201752 1.884485 -3.975893 18.686895 0.275110 -1.657896 0.000853 -0.000167 0.000686 -2.086375 -4.406940 -4.452678 30.812866 4.165002 -6.640438 47.627163 4.193765 -9.507788 35.587292 2.410789 -7.477927 0.000180 -0.000767 -0.000788 0.889846 7.534376 -1.165504 30.188484 -15.308092 2.728572 36.541153 -1.021171 3.081283 21.124029 -0.343576 1.863705 0.000441 0.001374 0.000612 9.528178 -5.967420 59.631210 7.595700 3.794616 3.645604 4.161601 -2.694751 1.243310 -0.002831 -0.000596 -0.000939 -11.378039 8.575084 -1.736206 -60.901379 5.198532 22.859848 179.999100 -52.771591 173.780304 14.312295 23.841072 0.177874 -27.229942 3.791248 -0.000809 -50.702732 -0.002348 0.001301 -25.205132 0.000621 -0.001399 0.000352 0.001269 -0.001127 -0.698948 1.626996 -10.889406 -22.943407 3.554992 -2.009269 -56.063606 -2.295921 -4.292950 -14.424609 -0.162721 -1.287950 -0.000504 0.000562 0.000371 -0.340928 1.452284 -5.166067 -11.020138 5.514688 -2.412995 -42.554287 -3.391864 -8.707756 -30.122232 -1.734636 -6.443372 0.000809 0.000357 -0.000138 -0.342758 -6.632611 -4.246811 -26.546463 14.077162 2.448353 -40.940037 1.262481 3.392395 -20.047590 0.304486 1.775295 -0.000548 0.000747 0.000154 -14.304477 8.106258 52.191444 -2.843560 5.514258 0.343028 0.000000 0.000000 0.000000 -0.001161 -0.000214 -0.000982 1.036244 0.750340 0.099648 -0.000336 0.002218 3.542167 0.000000 0.000000 -0.000000 0.000000 0.000000 0.000000 -0.000000 0.000000 0.000000 0.000000 0.000000 0.000000 9.482978 -9.390067 2.847477 0.001502 0.000423 1.257965 -0.000000 -0.000000 -0.000000 0.000000 -0.000000 -0.000000 -0.000000 -0.000000 0.000000 -0.000000 0.000000 0.000000 
0.740011 0.494488 7.124421 -7.082027 14.600850 1.716517 7.888681 -1.161129 1.252217 -0.088942 -0.008714 -2.652342 -0.394604 1.567269 -1.284826 1.025044 0.938479 8.025268 3.828475 1.355382 9.708514 -9.549010 5.304213 0.519181 -5.641836 1.324484 1.395835 0.000164 -0.001924 -0.001517 8.472115 -11.641461 -1.721225 68.797798 4.629324 12.828116 179.994934 62.015274 149.352112 -13.707221 -15.392843 0.037947 36.481689 -7.342119 -0.002132 41.279186 -0.001040 0.000452 22.419331 0.000180 0.001753 -0.001953 -0.001525 -0.002428 -1.561865 -1.789563 -4.818208 40.981987 -4.464853 -3.376363 50.358685 1.895029 -3.985039 18.700422 0.275697 -1.659060 0.000802 0.000027 0.001053 -2.083910 -4.457044 -4.416844 30.893354 4.373339 -6.662561 47.809956 4.225235 -9.535966 35.630455 2.415795 -7.485795 0.000279 -0.000728 -0.000716 0.898363 7.547274 -1.173044 30.321239 -15.323802 2.740095 36.684971 -1.028738 3.091913 21.348036 -0.351035 1.882283 0.000602 0.001562 0.000639 9.604023 -5.985129 59.672840 7.812455 3.606958 3.685517 4.473321 -2.900973 1.328649 -0.002711 -0.000778 -0.001204 -11.465468 8.617572 -1.757695 -60.928459 5.146430 23.947424 179.998962 -52.727322 174.511963 13.488324 23.989443 0.191631 -27.242245 3.801691 -0.001095 -50.649670 -0.002228 0.001297 -25.193249 0.000598 -0.001608 0.000187 0.001379 -0.001197 -0.696459 1.639224 -10.902993 -23.004351 3.556330 -2.014146 -56.122471 -2.299725 -4.296110 -14.417129 -0.162317 -1.287077 -0.000599 0.000386 0.000315 -0.325545 1.472399 -5.145216 -10.907398 5.519022 -2.388354 -42.599976 -3.399945 -8.715820 -30.076033 -1.729543 -6.434216 0.000802 0.000298 -0.000188 -0.342902 -6.641832 -4.255172 -26.608477 14.072511 2.453260 -41.004101 1.265396 3.397085 -20.147415 0.307670 1.783955 -0.000617 0.000879 0.000046 -14.323572 8.109688 52.225353 -2.876444 5.557558 0.349824 0.000000 0.000000 0.000000 -0.001038 -0.000177 -0.000833 1.721837 0.463414 0.442150 -0.000922 0.002559 2.976256 0.000000 0.000000 -0.000000 0.000000 0.000000 0.000000 -0.000000 0.000000 0.000000 0.000000 0.000000 0.000000 10.339056 -9.309467 2.617353 0.001490 0.000519 1.256477 -0.000000 -0.000000 -0.000000 0.000000 -0.000000 0.000000 -0.000000 -0.000000 0.000000 -0.000000 0.000000 0.000000 
